<?xml version="1.0" encoding="iso-8859-1"?>
<!-- Generator: Adobe Illustrator 19.0.0, SVG Export Plug-In . SVG Version: 6.00 Build 0)  -->
<svg version="1.1" id="Layer_1" xmlns="http://www.w3.org/2000/svg" xmlns:xlink="http://www.w3.org/1999/xlink" x="0px" y="0px"
	 viewBox="0 0 490.001 490.001" style="enable-background:new 0 0 490.001 490.001;" xml:space="preserve">
<g>
	<g id="XMLID_25_">
		<g>
			<polygon style="fill:#31C0D8;" points="420,10 420,85 70.001,85 70.001,405 10.001,405 10.001,10 			"/>
			<polygon style="fill:#FFB548;" points="480,380 380,480 380,380 			"/>
			<polygon style="fill:#FFD248;" points="480,85 480,380 380,380 380,480 70.001,480 70.001,405 70.001,85 420,85 			"/>
		</g>
		<g>
			<path style="fill:#231F20;" d="M490,85c0-5.523-4.477-10-10-10h-50V10c0-5.523-4.477-10-10-10h-410c-5.523,0-10,4.477-10,10v395
				c0,5.523,4.477,10,10,10h50v65c0,5.523,4.477,10,10,10h309.988c0.003,0,0.006,0.001,0.01,0.001c2.603,0,5.16-1.017,7.073-2.929
				l100-100c1.912-1.913,2.903-4.47,2.904-7.071H490V85z M60.001,85v310h-40V20h390v55h-340C64.478,75,60.001,79.477,60.001,85z
				 M380,370c-5.522,0-10,4.477-10,10v90h-290V95h390v275H380z M390,455.858V390h65.857L390,455.858z"/>
			<rect x="125.001" y="145" style="fill:#231F20;" width="280" height="20"/>
			<rect x="125.001" y="205" style="fill:#231F20;" width="150" height="20"/>
			<rect x="125.001" y="265" style="fill:#231F20;" width="280" height="20"/>
			<rect x="125.001" y="325" style="fill:#231F20;" width="150" height="20"/>
			<rect x="125.001" y="385" style="fill:#231F20;" width="35" height="20"/>
			<rect x="175.001" y="385" style="fill:#231F20;" width="35" height="20"/>
			<rect x="225.001" y="385" style="fill:#231F20;" width="35" height="20"/>
		</g>
	</g>
</g>
<g>
</g>
<g>
</g>
<g>
</g>
<g>
</g>
<g>
</g>
<g>
</g>
<g>
</g>
<g>
</g>
<g>
</g>
<g>
</g>
<g>
</g>
<g>
</g>
<g>
</g>
<g>
</g>
<g>
</g>
</svg>
